<svg xmlns="http://www.w3.org/2000/svg" xmlns:xlink="http://www.w3.org/1999/xlink" width="0" height="0" style="position:absolute">

<symbol id="svg-download" viewBox="0 0 24 24">
        <path d="M15 4h4q1.242 0 2.12.88T22 7v14q0 1.242-.88 2.12T19 24H5q-1.242 0-2.12-.88T2 21V7q0-1.242.88-2.12T5 4h4v2H5q-.414 0-.707.293T4 7v14q0 .414.293.707T5 22h14q.414 0 .707-.293T20 21V7q0-.414-.293-.707T19 6h-4V4zm-3-4q.414 0 .707.293T13 1v12.586l2.29-2.297q.288-.29.71-.29.43 0 .715.284T17 12q0 .422-.29.71l-4 4q-.288.29-.71.29t-.71-.29l-4-4Q7 12.407 7 12q0-.414.293-.707T8 11q.422 0 .71.29L11 13.585V1q0-.414.293-.707T12 0z"/>
</symbol>

<symbol id="svg-excel" viewBox="0 0 32 32">
        <path d="M23.22 12h-4.228L16 16.407 13.008 12H8.78l5.068 7.577L8.13 28H16v-2.862h-1.567L16 22.794 19.48 28h4.39l-5.718-8.424L23.22 12z"/><path d="M28.68 7.16c-.693-.948-1.66-2.054-2.723-3.117s-2.17-2.03-3.116-2.724C21.23.135 20.45 0 20 0H4.5C3.122 0 2 1.12 2 2.5v27C2 30.878 3.12 32 4.5 32h23c1.378 0 2.5-1.122 2.5-2.5V10c0-.448-.137-1.23-1.32-2.84zm-4.137-1.703c.96.96 1.712 1.825 2.268 2.543H22V3.19c.718.555 1.584 1.308 2.543 2.267zM28 29.5c0 .27-.23.5-.5.5h-23c-.27 0-.5-.23-.5-.5v-27c0-.27.23-.5.5-.5H20v7a1 1 0 0 0 1 1h7v19.5z"/>
</symbol>

<symbol id="svg-excel_upload" viewBox="0 0 28 65.1">
        <path class="st0" d="M21.1 45h-4.2l-3 4.4-3-4.4H6.7l5.1 7.6L6.1 61H14v-2.9h-1.6l1.6-2.3 3.5 5.2h4.4l-5.7-8.4 4.9-7.6z"/><path class="st0" d="M26.6 40.2c-.7-.9-1.7-2.1-2.7-3.1-1.1-1.1-2.2-2-3.1-2.7-1.6-1.2-2.4-1.3-2.8-1.3H2.5c-1.4 0-2.5 1.1-2.5 2.5v27c0 1.4 1.1 2.5 2.5 2.5h23c1.4 0 2.5-1.1 2.5-2.5V43c-.1-.4-.2-1.2-1.4-2.8zm-4.2-1.7c1 1 1.7 1.8 2.3 2.5h-4.8v-4.8c.7.5 1.6 1.3 2.5 2.3zm3.5 24c0 .3-.2.5-.5.5h-23c-.3 0-.5-.2-.5-.5v-27c0-.3.2-.5.5-.5h15.5v7c0 .6.4 1 1 1h7v19.5zM4.6 0h18.7c1.1 0 2 .4 2.8 1.2s1.2 1.7 1.2 2.8v18.7c0 1.1-.4 2-1.2 2.8-.8.8-1.7 1.2-2.8 1.2H18V24h5.3c.4 0 .7-.1.9-.4.3-.3.4-.6.4-.9V4c0-.4-.1-.7-.4-.9-.3-.3-.6-.4-.9-.4H4.6c-.4 0-.7.1-.9.4-.3.3-.4.6-.4.9v18.7c0 .4.1.7.4.9.3.3.6.4.9.4h5.3v2.7H4.6c-1.1 0-2-.4-2.8-1.2C1 24.7.6 23.8.6 22.7V4c0-1.1.4-2 1.2-2.8C2.5.4 3.5 0 4.6 0zm9.3 9.2c.4 0 .7.1.9.4l5.3 5.3c.3.3.4.6.4.9 0 .4-.1.7-.4.9-.3.3-.6.4-.9.4-.4 0-.7-.1-.9-.4l-3.1-3.1v16.8c0 .4-.1.7-.4.9-.3.3-.6.4-.9.4-.4 0-.7-.1-.9-.4-.3-.3-.4-.6-.4-.9V13.6l-3.1 3.1c-.3.3-.6.4-.9.4-.4 0-.7-.1-.9-.4-.3-.3-.4-.6-.4-.9 0-.4.1-.7.4-.9L13 9.6c.2-.1.5-.4.9-.4z"/>
</symbol>

<symbol id="svg-menu" viewBox="0 0 24 24">
        <path d="M3 5h18q.414 0 .707.293T22 6t-.293.707T21 7H3q-.414 0-.707-.293T2 6t.293-.707T3 5zm0 12h18q.414 0 .707.293T22 18t-.293.707T21 19H3q-.414 0-.707-.293T2 18t.293-.707T3 17zm0-6h18q.414 0 .707.293T22 12t-.293.707T21 13H3q-.414 0-.707-.293T2 12t.293-.707T3 11z"/>
</symbol>

<symbol id="svg-pencil" viewBox="0 0 24 24">
        <path d="M12.91.604L4.11 16.31l.046.022.445 7.064 6.45-3.202.04.023 8.8-15.704-6.98-3.91zM6.055 20.9l-.06-3.54 3.198 1.794L6.055 20.9zm4.267-3.404L6.834 15.54l5.377-9.596 3.49 1.954-5.377 9.598zM12.7 5.07l.978-1.744 3.488 1.955-.977 1.746L12.7 5.07z"/>
</symbol>

<symbol id="svg-plus" viewBox="0 0 24 24">
        <path d="M12 2q.414 0 .707.293T13 3v8h8q.414 0 .707.293T22 12t-.293.707T21 13h-8v8q0 .414-.293.707T12 22t-.707-.293T11 21v-8H3q-.414 0-.707-.293T2 12t.293-.707T3 11h8V3q0-.414.293-.707T12 2z"/>
</symbol>

<symbol id="svg-trash" viewBox="0 0 24 24">
        <path d="M10 1h4q1.242 0 2.12.88T17 4v1h4q.414 0 .707.293T22 6t-.293.707T21 7h-1v12q0 1.242-.88 2.12T17 22H7q-1.242 0-2.12-.88T4 19V7H3q-.414 0-.707-.293T2 6t.293-.707T3 5h4V4q0-1.242.88-2.12T10 1zm8 18V7H6v12q0 .414.293.707T7 20h10q.414 0 .707-.293T18 19zM14 3h-4q-.414 0-.707.293T9 4v1h6V4q0-.414-.293-.707T14 3z"/>
</symbol>

<symbol id="svg-upload" viewBox="0 0 32 32">
        <path d="M6.667 0h18.667q1.656 0 2.828 1.172T29.334 4v18.667q0 1.656-1.172 2.828t-2.828 1.172H20V24h5.334q.552 0 .943-.39t.39-.944V4q0-.553-.39-.944t-.943-.39H6.667q-.552 0-.943.39T5.334 4v18.666q0 .552.39.943t.943.39H12v2.666H6.667q-1.656 0-2.828-1.172t-1.174-2.828V4q0-1.656 1.172-2.828T6.666 0zM16 9.333q.563 0 .948.385l5.333 5.333q.387.387.387.95 0 .55-.39.943t-.944.39q-.542 0-.948-.384l-3.052-3.064v16.78q0 .553-.39.944T16 32t-.944-.39-.39-.944v-16.78l-3.053 3.062q-.406.385-.948.385-.552 0-.943-.39T9.332 16q0-.544.385-.95l5.333-5.333q.385-.385.948-.385z"/>
</symbol>
</svg>