<?xml version="1.0" encoding="utf-8"?>
<!-- Generator: Adobe Illustrator 19.1.0, SVG Export Plug-In . SVG Version: 6.00 Build 0)  -->
<svg version="1.1" id="Layer_1" xmlns="http://www.w3.org/2000/svg" xmlns:xlink="http://www.w3.org/1999/xlink" viewBox="0 0 28 65.1" style="enable-background:new 0 0 28 65.1;" xml:space="preserve">
<path class="st0" d="M21.1,45h-4.2l-3,4.4l-3-4.4H6.7l5.1,7.6L6.1,61H14v-2.9h-1.6l1.6-2.3l3.5,5.2h4.4l-5.7-8.4L21.1,45L21.1,45z"
	/>
<path class="st0" d="M26.6,40.2c-0.7-0.9-1.7-2.1-2.7-3.1c-1.1-1.1-2.2-2-3.1-2.7c-1.6-1.2-2.4-1.3-2.8-1.3H2.5
	c-1.4,0-2.5,1.1-2.5,2.5v27c0,1.4,1.1,2.5,2.5,2.5h23c1.4,0,2.5-1.1,2.5-2.5V43C27.9,42.6,27.8,41.8,26.6,40.2L26.6,40.2z
	 M22.4,38.5c1,1,1.7,1.8,2.3,2.5h-4.8v-4.8C20.6,36.7,21.5,37.5,22.4,38.5L22.4,38.5z M25.9,62.5c0,0.3-0.2,0.5-0.5,0.5h-23
	c-0.3,0-0.5-0.2-0.5-0.5v-27c0-0.3,0.2-0.5,0.5-0.5h15.5v7c0,0.6,0.4,1,1,1h7V62.5z"/>
<path class="st0" d="M4.6,0h18.7c1.1,0,2,0.4,2.8,1.2s1.2,1.7,1.2,2.8v18.7c0,1.1-0.4,2-1.2,2.8c-0.8,0.8-1.7,1.2-2.8,1.2H18V24h5.3
	c0.4,0,0.7-0.1,0.9-0.4c0.3-0.3,0.4-0.6,0.4-0.9V4c0-0.4-0.1-0.7-0.4-0.9c-0.3-0.3-0.6-0.4-0.9-0.4H4.6c-0.4,0-0.7,0.1-0.9,0.4
	C3.4,3.4,3.3,3.7,3.3,4v18.7c0,0.4,0.1,0.7,0.4,0.9C4,23.9,4.3,24,4.6,24h5.3v2.7H4.6c-1.1,0-2-0.4-2.8-1.2
	c-0.8-0.8-1.2-1.7-1.2-2.8V4c0-1.1,0.4-2,1.2-2.8C2.5,0.4,3.5,0,4.6,0z M13.9,9.2c0.4,0,0.7,0.1,0.9,0.4l5.3,5.3
	c0.3,0.3,0.4,0.6,0.4,0.9c0,0.4-0.1,0.7-0.4,0.9c-0.3,0.3-0.6,0.4-0.9,0.4c-0.4,0-0.7-0.1-0.9-0.4l-3.1-3.1v16.8
	c0,0.4-0.1,0.7-0.4,0.9c-0.3,0.3-0.6,0.4-0.9,0.4c-0.4,0-0.7-0.1-0.9-0.4c-0.3-0.3-0.4-0.6-0.4-0.9V13.6l-3.1,3.1
	c-0.3,0.3-0.6,0.4-0.9,0.4c-0.4,0-0.7-0.1-0.9-0.4c-0.3-0.3-0.4-0.6-0.4-0.9c0-0.4,0.1-0.7,0.4-0.9L13,9.6
	C13.2,9.5,13.5,9.2,13.9,9.2L13.9,9.2z"/>
</svg>
